<svg width="23" height="55" viewBox="0 0 23 55" fill="none" xmlns="http://www.w3.org/2000/svg">
<path d="M5.04159 38C4.82159 38 4.64159 37.93 4.50159 37.79C4.36159 37.65 4.29159 37.47 4.29159 37.25V17.75C4.29159 17.53 4.36159 17.35 4.50159 17.21C4.64159 17.07 4.82159 17 5.04159 17H18.8116C19.0316 17 19.2116 17.07 19.3516 17.21C19.5116 17.35 19.5916 17.53 19.5916 17.75V20.78C19.5916 21 19.5116 21.18 19.3516 21.32C19.2116 21.46 19.0316 21.53 18.8116 21.53H9.57159V25.94H18.2116C18.4316 25.94 18.6116 26.02 18.7516 26.18C18.9116 26.32 18.9916 26.5 18.9916 26.72V29.72C18.9916 29.92 18.9116 30.1 18.7516 30.26C18.6116 30.4 18.4316 30.47 18.2116 30.47H9.57159V37.25C9.57159 37.47 9.50159 37.65 9.36159 37.79C9.22159 37.93 9.04159 38 8.82159 38H5.04159Z" fill="#FF9DC5"/>
<path d="M2.8511 38C2.6311 38 2.4511 37.93 2.3111 37.79C2.1711 37.65 2.1011 37.47 2.1011 37.25V17.75C2.1011 17.53 2.1711 17.35 2.3111 17.21C2.4511 17.07 2.6311 17 2.8511 17H16.6211C16.8411 17 17.0211 17.07 17.1611 17.21C17.3211 17.35 17.4011 17.53 17.4011 17.75V20.78C17.4011 21 17.3211 21.18 17.1611 21.32C17.0211 21.46 16.8411 21.53 16.6211 21.53H7.3811V25.94H16.0211C16.2411 25.94 16.4211 26.02 16.5611 26.18C16.7211 26.32 16.8011 26.5 16.8011 26.72V29.72C16.8011 29.92 16.7211 30.1 16.5611 30.26C16.4211 30.4 16.2411 30.47 16.0211 30.47H7.3811V37.25C7.3811 37.47 7.3111 37.65 7.1711 37.79C7.0311 37.93 6.8511 38 6.6311 38H2.8511Z" fill="white"/>
</svg>
